<?xml version="1.0" encoding="utf-8"?>
<!-- Generator: Adobe Illustrator 25.4.1, SVG Export Plug-In . SVG Version: 6.00 Build 0)  -->
<svg version="1.1" id="Outline_00000068660976892517701140000011396894017443136155_"
	 xmlns="http://www.w3.org/2000/svg" xmlns:xlink="http://www.w3.org/1999/xlink" x="0px" y="0px" viewBox="0 0 48 48"
	 enable-background="new 0 0 48 48" xml:space="preserve">
<g>
	<path d="M20,32.25c-1.5166,0-2.75,1.2334-2.75,2.75s1.2334,2.75,2.75,2.75s2.75-1.2334,2.75-2.75S21.5166,32.25,20,32.25z
		 M20,36.25c-0.68945,0-1.25-0.56055-1.25-1.25s0.56055-1.25,1.25-1.25s1.25,0.56055,1.25,1.25S20.68945,36.25,20,36.25z"/>
	<path d="M32,32.25c-1.5166,0-2.75,1.2334-2.75,2.75s1.2334,2.75,2.75,2.75s2.75-1.2334,2.75-2.75S33.5166,32.25,32,32.25z
		 M32,36.25c-0.68945,0-1.25-0.56055-1.25-1.25s0.56055-1.25,1.25-1.25s1.25,0.56055,1.25,1.25S32.68945,36.25,32,36.25z"/>
	<path d="M35.30713,25.60254c0,0,3.33292-8.99631,3.33447-9.00049c0.41978-1.13309-0.46645-2.35205-1.66113-2.35205H15.27234
		l-0.39832-2.52246C14.73926,10.87158,14.01221,10.25,13.14551,10.25H10c-0.41406,0-0.75,0.33594-0.75,0.75s0.33594,0.75,0.75,0.75
		h3.14551c0.12402,0,0.22754,0.08887,0.24707,0.21143l2.7334,17.31104c0.13477,0.85596,0.86182,1.47754,1.72852,1.47754H35
		c0.41406,0,0.75-0.33594,0.75-0.75s-0.33594-0.75-0.75-0.75H17.85449c-0.12402,0-0.22754-0.08887-0.24707-0.21143L17.24603,26.75
		h16.40094C34.38623,26.75,35.05371,26.28857,35.30713,25.60254z M15.50916,15.75c0,0,21.47131,0,21.47132,0
		c0.16788,0.00001,0.31524,0.16477,0.25438,0.33105l-3.33447,9.00098C33.86328,25.18262,33.76123,25.25,33.64697,25.25H17.00922
		L15.50916,15.75z"/>
</g>
</svg>
