<svg width="50" height="50" viewBox="0 0 50 50" fill="none" xmlns="http://www.w3.org/2000/svg">
<g clip-path="url(#clip0_121_686)">
<path d="M36.5333 6.66414L25.0001 13.3283L13.4673 6.66414L25.0001 0L36.5333 6.66414Z" fill="#645C52"/>
<path d="M37.1778 7.78149V21.109L25.6445 27.7731V14.4452L37.1778 7.78149Z" fill="#645C52"/>
<path d="M24.3557 14.4452V27.7731L12.8225 21.109V7.78149L24.3557 14.4452Z" fill="#645C52"/>
<path d="M49.356 28.891L37.8228 35.5543L26.2896 28.8905L37.8228 22.2268L49.356 28.891Z" fill="#645C52"/>
<path d="M37.178 36.6717V50L25.6448 43.3359V30.0076L37.178 36.6717Z" fill="#645C52"/>
<path d="M50.0001 30.0081V43.3359L38.4673 50.0001V36.6718L50.0001 30.0081Z" fill="#645C52"/>
<path d="M11.5332 36.6717V50L0 43.3359V30.0076L11.5332 36.6717Z" fill="#645C52"/>
<path d="M23.7112 28.8905L12.178 35.5543L0.644775 28.8905L12.178 22.2268L23.7112 28.8905Z" fill="#645C52"/>
<path d="M24.3557 30.0076V43.3359L12.8225 50V36.6717L24.3557 30.0076Z" fill="#645C52"/>
</g>
<defs>
<clipPath id="clip0_121_686">
<rect width="50" height="50" fill="white"/>
</clipPath>
</defs>
</svg>
