<svg width="40" height="40" viewBox="0 0 40 40" fill="none" xmlns="http://www.w3.org/2000/svg">
<path d="M33.1346 13.7855C32.3729 13.2013 31.0834 13.7646 31.3655 14.5607C31.715 15.5479 31.9871 16.7538 31.9871 18.114C31.9871 19.7361 31.4929 20.8052 30.8705 21.5665C29.2897 23.4984 26.0226 23.3935 25.4466 21.5228C24.6157 18.826 26.8554 18.0897 26.8554 13.4604C26.8554 9.75428 25.5977 4.85543 17.2489 0.159432C16.4781 -0.274045 15.4097 0.237929 15.5863 0.956222C15.7319 1.54878 15.8356 2.25804 15.8356 3.07498C15.8356 11.9884 0 15.27 0 26.5015C0 32.1478 3.70204 37.0272 9.27059 39.7962C9.89943 40.1088 10.652 39.5517 10.2562 39.0654C9.10133 37.6489 8.43062 35.9546 8.43062 34.12C8.43062 30.6188 10.6229 28.2458 12.3156 26.935C12.8089 26.5529 13.6506 26.9009 13.5032 27.4254C13.3485 27.9756 13.232 28.6369 13.232 29.3788C13.232 30.309 13.515 30.9224 13.8727 31.3587C14.7791 32.4667 16.8148 32.4194 17.0615 31.3337C17.2762 30.3861 16.54 29.0294 16.54 27.1031C16.54 24.7891 17.3372 21.6846 21.2422 19.2449C21.7418 18.9323 22.4826 19.254 22.3852 19.7416C22.3261 20.0369 22.2878 20.3752 22.2878 20.7538C22.2878 27.1607 31.3701 29.1482 31.3701 34.1888C31.3701 36.0394 30.6766 37.7469 29.4863 39.1661C29.0786 39.6524 29.8157 40.2213 30.4555 39.9122C36.176 37.1481 40 32.1645 40 26.3799C40 20.2154 36.1023 16.0557 33.1392 13.7848L33.1346 13.7855Z" fill="#645C52"/>
</svg>
