<svg xmlns="http://www.w3.org/2000/svg" viewBox="0 0 48 48"><title>Ui vol.2</title><g id="Layer_10" data-name="Layer 10"><path d="M40.67773.915H9.06592A4.98963,4.98963,0,0,0,4.082,5.89893V42.10107A4.98963,4.98963,0,0,0,9.06592,47.085H40.67773a4.98974,4.98974,0,0,0,4.98438-4.98389V5.89893A4.98974,4.98974,0,0,0,40.67773.915Zm2.98438,41.186A2.98745,2.98745,0,0,1,40.67773,45.085H9.06592A2.987,2.987,0,0,1,6.082,42.10107V5.89893A2.987,2.987,0,0,1,9.06592,2.915H40.67773a2.98745,2.98745,0,0,1,2.98438,2.98389Z"/><path d="M14.522,8.623H10.36475a1,1,0,0,0-1,1v4.15722a1,1,0,0,0,1,1H14.522a1,1,0,0,0,1-1V9.623A1,1,0,0,0,14.522,8.623Zm-1,4.15722H11.36475V10.623H13.522Z"/><path d="M39.11914,10.70166H18.15967a1,1,0,0,0,0,2H39.11914a1,1,0,0,0,0-2Z"/><path d="M14.522,20.92139H10.36475a1,1,0,0,0-1,1v4.15722a1,1,0,0,0,1,1H14.522a1,1,0,0,0,1-1V21.92139A1,1,0,0,0,14.522,20.92139Zm-1,4.15722H11.36475V22.92139H13.522Z"/><path d="M39.11914,23H18.15967a1,1,0,0,0,0,2H39.11914a1,1,0,0,0,0-2Z"/><path d="M14.522,33.21973H10.36475a1,1,0,0,0-1,1V38.377a1,1,0,0,0,1,1H14.522a1,1,0,0,0,1-1V34.21973A1,1,0,0,0,14.522,33.21973Zm-1,4.15722H11.36475V35.21973H13.522Z"/><path d="M39.11914,35.29834H18.15967a1,1,0,0,0,0,2H39.11914a1,1,0,0,0,0-2Z"/></g></svg>