<svg width="47" height="44" viewBox="0 0 47 44" fill="none" xmlns="http://www.w3.org/2000/svg">
<g clip-path="url(#clip0_118_642)">
<path d="M35.5559 16.555C37.1993 15.4434 38.7274 14.042 40.0976 12.3909C41.6953 10.4648 42.8314 8.2351 43.93 6.078C44.8161 4.33835 45.7325 2.5393 46.8846 0.915154C47.0083 0.740804 47.0343 0.531804 46.9553 0.340954C46.883 0.166054 46.7306 0.0379041 46.5567 0.00710407C46.4452 -0.0126959 46.3276 0.00765408 46.2183 0.0665041C43.9941 1.26055 41.4761 1.7044 39.5307 1.9574C38.8837 2.0421 38.2251 2.1202 37.5891 2.19665C34.5307 2.5624 31.368 2.94025 28.3559 4.0705C26.0445 4.9384 23.9207 6.52625 22.2148 8.66245C22.0928 8.8148 21.9741 8.9699 21.8571 9.12665C21.867 9.1305 21.8775 9.13435 21.8875 9.13765C21.8974 9.14095 21.9068 9.1448 21.9167 9.14865C23.4399 9.7047 24.9442 10.3438 26.4083 11.1083C26.4188 11.1138 26.4292 11.1188 26.4392 11.1243C26.4491 11.1298 26.4591 11.1342 26.469 11.1397C26.4701 11.1397 26.4712 11.1408 26.4723 11.1413C26.9162 10.9065 27.37 10.6898 27.8381 10.4929C30.1628 9.5144 32.4428 8.59315 34.7195 8.0558C32.5819 8.97485 30.1821 10.0622 27.9314 11.4218C27.7763 11.5159 27.6239 11.6099 27.4721 11.7051C27.4815 11.7106 27.4914 11.7166 27.5008 11.7221C27.5107 11.7282 27.5201 11.7337 27.5295 11.7397C29.9276 13.1945 32.0448 15.1756 33.7551 17.5615C33.7617 17.5708 33.7683 17.5807 33.7749 17.5895L33.7904 17.611C34.3883 17.2975 34.9779 16.9455 35.5559 16.5544V16.555ZM35.5559 16.555L0.819835 3.3599C0.295932 3.2675 -0.203681 3.83235 0.0844934 4.3807C2.92317 9.7762 3.78494 15.8741 7.09287 21.1079C10.1353 25.9209 14.4822 29.9376 19.8609 31.988C23.9571 33.5494 28.7507 33.6369 32.6625 35.5767C32.7431 35.6169 32.8204 35.6526 32.8961 35.6867C33.9991 38.0066 34.6439 40.5201 34.7913 43.126C34.8161 43.5649 35.1805 43.912 35.5978 43.9857C35.679 44 35.7623 44.0038 35.8457 43.9967C36.3851 43.9466 36.7489 43.4703 36.7191 42.9462C36.4226 37.7091 34.0879 32.6282 30.8755 28.5312C29.0405 26.1899 26.9173 24.1846 24.6229 22.3855C23.6176 21.5979 22.5797 20.8505 21.5187 20.1311C21.5077 20.1239 21.4972 20.1168 21.4861 20.1091C21.4751 20.1019 21.464 20.0942 21.453 20.0865C20.9418 19.7406 20.4256 19.4012 19.905 19.0679C19.8973 19.063 19.8901 19.058 19.8824 19.0536C19.8725 19.0476 19.8625 19.041 19.8526 19.0349C18.2373 18.0015 16.5816 17.0197 14.9172 16.0539C16.7318 16.6776 18.5116 17.4845 20.2517 18.3727C20.2622 18.3782 20.2727 18.3837 20.2832 18.3887C20.2909 18.3925 20.2992 18.3969 20.3075 18.4008C21.1709 18.843 22.0249 19.305 22.8685 19.7747C22.8834 19.7829 22.8983 19.7912 22.9132 19.7994C22.9275 19.8071 22.9413 19.8154 22.9557 19.8231C23.6712 20.2229 24.38 20.6272 25.08 21.0292C29.2315 23.4135 32.3882 26.9439 35.4686 30.5327C35.584 30.6669 35.7265 30.7422 35.8733 30.7681C36.2884 30.8412 36.7384 30.5211 36.6997 30.0239C36.3757 25.8142 34.8846 21.6601 32.4003 18.2622L32.3832 18.2391C32.3766 18.2303 32.3699 18.2215 32.3639 18.2121C30.7071 15.9604 28.6132 14.0448 26.1311 12.6692C26.1212 12.6637 26.1118 12.6582 26.1019 12.6527C26.0919 12.6472 26.0826 12.6417 26.0726 12.6368C25.971 12.5807 25.8684 12.5257 25.7651 12.4712C25.4891 12.3266 25.2109 12.1869 24.9321 12.051C24.9216 12.0461 24.9111 12.0406 24.9006 12.0356C24.8912 12.0307 24.8818 12.0263 24.8719 12.0213C23.6209 11.4152 22.3424 10.8955 21.045 10.4335C21.0356 10.4302 21.0263 10.4269 21.0163 10.4236C21.0064 10.4203 20.9959 10.4164 20.986 10.4131C17.4964 9.17615 13.871 8.35225 10.2705 7.3837C7.12654 6.53835 3.82193 5.3982 1.10635 3.48255C1.01305 3.41655 0.915893 3.3775 0.819282 3.36045L35.5559 16.555Z" fill="#645C52"/>
</g>
<defs>
<clipPath id="clip0_118_642">
<rect width="47" height="44" fill="white"/>
</clipPath>
</defs>
</svg>
