<svg width="54" height="54" viewBox="0 0 54 54" fill="none" xmlns="http://www.w3.org/2000/svg">
<path d="M27.0003 54C12.1125 54 0 41.8874 0 27C0 12.1126 12.1125 7.96735e-07 27.0003 7.96735e-07C41.8881 7.96735e-07 54 12.1126 54 27C54 41.8874 41.8881 54 27.0003 54ZM27.0003 1.86187C13.1391 1.86187 1.86243 13.1387 1.86243 27C1.86243 40.8613 13.1391 52.1381 27.0003 52.1381C40.8614 52.1381 52.1381 40.8613 52.1381 27C52.1381 13.1387 40.8608 1.86187 27.0003 1.86187Z" fill="#645C52"/>
<path d="M40.4485 42.1008L29.5212 31.1739C29.343 30.9958 29.1056 30.9012 28.863 30.9012C28.7429 30.9012 28.6222 30.9238 28.5067 30.972C28.1591 31.1159 27.9321 31.456 27.9321 31.8321V47.2355C27.9321 48.0428 28.2879 48.8037 28.9072 49.3237C29.516 49.8356 30.3111 50.0515 31.0871 49.9122C34.3325 49.3393 37.3621 48.102 40.0916 46.2343C40.7439 45.7891 41.1607 45.0776 41.2349 44.2831C41.311 43.4723 41.0237 42.6766 40.4485 42.1008Z" fill="#645C52"/>
<path d="M49.3246 28.9076C48.8052 28.2877 48.0437 27.9319 47.2364 27.9319H31.832C31.456 27.9319 31.1164 28.1583 30.9719 28.5065C30.828 28.8548 30.9075 29.2552 31.1739 29.5216L42.1012 40.4485C42.677 41.0236 43.4785 41.3115 44.2834 41.2349C45.078 41.16 45.7895 40.7439 46.2358 40.091C48.1017 37.3626 49.3391 34.333 49.9131 31.0869C50.0495 30.3104 49.8353 29.5158 49.3246 28.9076Z" fill="#645C52"/>
<path d="M49.9131 22.912C49.3397 19.6671 48.1023 16.6375 46.2353 13.9079C45.7889 13.255 45.0774 12.8389 44.2823 12.764C44.197 12.757 44.1117 12.7524 44.0263 12.7524C43.3061 12.7524 42.616 13.0362 42.1012 13.551L31.1739 24.4784C30.9075 24.7448 30.828 25.1453 30.9719 25.4935C31.1164 25.8418 31.456 26.0681 31.832 26.0681H47.2364C48.0437 26.0681 48.8046 25.7123 49.324 25.0925C49.8353 24.4831 50.0501 23.6885 49.9131 22.912Z" fill="#645C52"/>
<path d="M41.6337 10.0356C41.5704 9.25093 41.1711 8.5388 40.5373 8.08262V8.08146C37.7417 6.0652 34.4753 4.68389 31.0917 4.08726C30.9373 4.05998 30.7829 4.04663 30.6297 4.04663C30.0058 4.04663 29.3964 4.2666 28.9066 4.67751C28.2873 5.19753 27.9321 5.95841 27.9321 6.76515V22.8481C27.9321 23.2248 28.1591 23.5649 28.5067 23.7083C28.8538 23.8551 29.2548 23.7733 29.5212 23.5069L40.8449 12.183C41.4108 11.6166 41.6981 10.8336 41.6337 10.0356Z" fill="#645C52"/>
<path d="M26.0684 22.8481V6.76515C26.0684 5.95841 25.7126 5.19753 25.0934 4.67751C24.6041 4.2666 23.9941 4.04663 23.3708 4.04663C23.217 4.04663 23.062 4.05998 22.9088 4.08668C19.5246 4.68389 16.2583 6.06521 13.4626 8.08262C12.8294 8.5388 12.4295 9.25093 12.3657 10.0356C12.3019 10.8336 12.5891 11.6166 13.1544 12.183L24.4787 23.5069C24.7451 23.7733 25.1439 23.8551 25.4938 23.7083C25.8415 23.5649 26.0684 23.2248 26.0684 22.8481Z" fill="#645C52"/>
<path d="M23.5059 24.4784L12.1827 13.1546C11.6691 12.6404 10.9767 12.3571 10.2559 12.3571C10.1827 12.3571 10.1085 12.3595 10.0348 12.3653C9.24951 12.4285 8.53796 12.829 8.08121 13.4616C6.06498 16.2573 4.68426 19.5243 4.08705 22.9085C3.95008 23.6868 4.16482 24.4825 4.67671 25.0925C5.19673 25.7123 5.9576 26.0681 6.76491 26.0681H22.8477C23.2244 26.0681 23.5639 25.8418 23.7079 25.4935C23.8518 25.1453 23.7723 24.7448 23.5059 24.4784Z" fill="#645C52"/>
<path d="M23.7079 28.5066C23.5639 28.1583 23.2244 27.932 22.8477 27.932H6.76491C5.9576 27.932 5.19615 28.2877 4.67671 28.907C4.16482 29.517 3.95008 30.3133 4.08705 31.0916C4.68426 34.4746 6.06498 37.7416 8.08179 40.5373C8.53796 41.1705 9.24951 41.5704 10.0348 41.6342C10.8299 41.6929 11.6169 41.4114 12.1827 40.8449L23.5059 29.5216C23.7723 29.2552 23.8518 28.8548 23.7079 28.5066Z" fill="#645C52"/>
<path d="M26.0684 47.2357V31.8323C26.0684 31.4562 25.8415 31.1161 25.4939 30.9722C25.3784 30.924 25.2571 30.9014 25.1369 30.9014C24.8949 30.9014 24.657 30.996 24.4788 31.1741L13.5515 42.101C12.9763 42.6767 12.6896 43.4713 12.765 44.2833C12.8393 45.0778 13.2561 45.7893 13.9084 46.2345C16.6391 48.1022 19.668 49.3395 22.9129 49.9124C23.6872 50.0505 24.484 49.8358 25.0928 49.3239C25.7127 48.8039 26.0684 48.043 26.0684 47.2357Z" fill="#645C52"/>
</svg>
